<svg viewBox="0 0 800 200" xmlns="http://www.w3.org/2000/svg" font-family="Arial, sans-serif" font-size="13">

  <rect width="800" height="200" fill="#1e1e2e" rx="12"/>

  <!-- BLE Keyboard block -->
  <rect x="30" y="60" width="150" height="80" rx="8" fill="#2a2a4a" stroke="#4a9eff" stroke-width="2"/>
  <text x="105" y="95" fill="#4a9eff" font-size="13" font-weight="bold" text-anchor="middle">BLE Keyboard</text>
  <text x="105" y="115" fill="#aaa" font-size="11" text-anchor="middle">HID over BLE</text>
  <text x="105" y="130" fill="#aaa" font-size="11" text-anchor="middle">(any device)</text>

  <!-- Arrow 1 -->
  <line x1="180" y1="100" x2="250" y2="100" stroke="#4a9eff" stroke-width="2" marker-end="url(#arr)"/>
  <text x="215" y="92" fill="#4a9eff" font-size="10" text-anchor="middle">BLE</text>
  <text x="215" y="114" fill="#4a9eff" font-size="10" text-anchor="middle">HID notify</text>

  <!-- ESP32 block -->
  <rect x="250" y="40" width="170" height="120" rx="8" fill="#1a3a1a" stroke="#78d878" stroke-width="2"/>
  <text x="335" y="68" fill="#78d878" font-size="13" font-weight="bold" text-anchor="middle">ESP32-WROOM-32</text>
  <text x="335" y="88" fill="#aaa" font-size="10" text-anchor="middle">NimBLE-Arduino 2.x</text>
  <text x="335" y="106" fill="#aaa" font-size="10" text-anchor="middle">HID → PS/2 scan codes</text>
  <text x="335" y="124" fill="#aaa" font-size="10" text-anchor="middle">FreeRTOS PS/2 tasks</text>
  <text x="335" y="142" fill="#aaa" font-size="10" text-anchor="middle">GPIO open-drain</text>

  <!-- Arrow 2 -->
  <line x1="420" y1="100" x2="490" y2="100" stroke="#78d878" stroke-width="2" marker-end="url(#arr2)"/>
  <text x="455" y="92" fill="#78d878" font-size="10" text-anchor="middle">3.3V</text>
  <text x="455" y="114" fill="#78d878" font-size="10" text-anchor="middle">open-drain</text>

  <!-- Level shifter block -->
  <rect x="490" y="60" width="130" height="80" rx="8" fill="#2a2a2a" stroke="#ffd700" stroke-width="2"/>
  <text x="555" y="88" fill="#ffd700" font-size="12" font-weight="bold" text-anchor="middle">Level Shifter</text>
  <text x="555" y="106" fill="#aaa" font-size="10" text-anchor="middle">BSS138</text>
  <text x="555" y="122" fill="#aaa" font-size="10" text-anchor="middle">3.3V ↔ 5V</text>

  <!-- Arrow 3 -->
  <line x1="620" y1="100" x2="690" y2="100" stroke="#ffd700" stroke-width="2" marker-end="url(#arr3)"/>
  <text x="655" y="92" fill="#ffd700" font-size="10" text-anchor="middle">5V</text>
  <text x="655" y="114" fill="#ffd700" font-size="10" text-anchor="middle">PS/2 bus</text>

  <!-- PC block -->
  <rect x="690" y="60" width="90" height="80" rx="8" fill="#2a2a4a" stroke="#cc88ff" stroke-width="2"/>
  <text x="735" y="92" fill="#cc88ff" font-size="13" font-weight="bold" text-anchor="middle">PC</text>
  <text x="735" y="110" fill="#aaa" font-size="10" text-anchor="middle">AT DIN-5</text>
  <text x="735" y="126" fill="#aaa" font-size="10" text-anchor="middle">PS/2 port</text>

  <!-- Arrow markers -->
  <defs>
    <marker id="arr" markerWidth="8" markerHeight="8" refX="6" refY="3" orient="auto">
      <path d="M0,0 L0,6 L8,3 z" fill="#4a9eff"/>
    </marker>
    <marker id="arr2" markerWidth="8" markerHeight="8" refX="6" refY="3" orient="auto">
      <path d="M0,0 L0,6 L8,3 z" fill="#78d878"/>
    </marker>
    <marker id="arr3" markerWidth="8" markerHeight="8" refX="6" refY="3" orient="auto">
      <path d="M0,0 L0,6 L8,3 z" fill="#ffd700"/>
    </marker>
  </defs>

  <text x="400" y="185" fill="#555" font-size="11" text-anchor="middle">ESP32 emulates an AT PS/2 keyboard — the PC has no knowledge of BLE</text>
</svg>
