<svg viewBox="0 0 760 200" xmlns="http://www.w3.org/2000/svg" font-family="Arial, sans-serif" font-size="13">
  <rect width="760" height="200" fill="#1e1e2e" rx="12"/>

  <!-- BLE Keyboard -->
  <rect x="30" y="60" width="150" height="80" rx="8" fill="#2a2a4a" stroke="#4a9eff" stroke-width="2"/>
  <text x="105" y="95" fill="#4a9eff" font-size="13" font-weight="bold" text-anchor="middle">BLE Keyboard</text>
  <text x="105" y="113" fill="#aaa" font-size="11" text-anchor="middle">HID over BLE 5.0</text>
  <text x="105" y="129" fill="#aaa" font-size="11" text-anchor="middle">(any device)</text>

  <!-- Arrow 1 -->
  <defs>
    <marker id="a1" markerWidth="8" markerHeight="8" refX="6" refY="3" orient="auto"><path d="M0,0 L0,6 L8,3 z" fill="#4a9eff"/></marker>
    <marker id="a2" markerWidth="8" markerHeight="8" refX="6" refY="3" orient="auto"><path d="M0,0 L0,6 L8,3 z" fill="#78d878"/></marker>
    <marker id="a3" markerWidth="8" markerHeight="8" refX="6" refY="3" orient="auto"><path d="M0,0 L0,6 L8,3 z" fill="#ff9944"/></marker>
  </defs>
  <line x1="180" y1="100" x2="250" y2="100" stroke="#4a9eff" stroke-width="2" marker-end="url(#a1)"/>
  <text x="215" y="92" fill="#4a9eff" font-size="10" text-anchor="middle">BLE 5.0</text>
  <text x="215" y="114" fill="#4a9eff" font-size="10" text-anchor="middle">HID notify</text>

  <!-- ESP32-S3 -->
  <rect x="250" y="35" width="200" height="130" rx="8" fill="#1a3a1a" stroke="#78d878" stroke-width="2"/>
  <text x="350" y="60" fill="#78d878" font-size="13" font-weight="bold" text-anchor="middle">ESP32-S3 N16R8</text>
  <text x="350" y="78" fill="#aaa" font-size="10" text-anchor="middle">NimBLE-Arduino 2.x</text>
  <text x="350" y="95" fill="#aaa" font-size="10" text-anchor="middle">BLE HID host</text>
  <text x="350" y="112" fill="#aaa" font-size="10" text-anchor="middle">USB HID device (native)</text>
  <text x="350" y="129" fill="#aaa" font-size="10" text-anchor="middle">Typematic + auto-reconnect</text>
  <text x="350" y="146" fill="#aaa" font-size="10" text-anchor="middle">FreeRTOS BLE daemon</text>

  <!-- Arrow 2 -->
  <line x1="450" y1="100" x2="530" y2="100" stroke="#ff9944" stroke-width="2" marker-end="url(#a3)"/>
  <text x="490" y="92" fill="#ff9944" font-size="10" text-anchor="middle">USB-C</text>
  <text x="490" y="114" fill="#ff9944" font-size="10" text-anchor="middle">HID + power</text>

  <!-- PC -->
  <rect x="530" y="60" width="200" height="80" rx="8" fill="#2a2a4a" stroke="#cc88ff" stroke-width="2"/>
  <text x="630" y="90" fill="#cc88ff" font-size="13" font-weight="bold" text-anchor="middle">PC / Mac / Linux</text>
  <text x="630" y="108" fill="#aaa" font-size="10" text-anchor="middle">USB HID — žádný driver</text>
  <text x="630" y="124" fill="#aaa" font-size="10" text-anchor="middle">plug &amp; play</text>

  <text x="380" y="185" fill="#555" font-size="11" text-anchor="middle">Žádný level shifter, žádné extra součástky — jen USB-C kabel</text>
</svg>
