<svg viewBox="0 0 860 420" xmlns="http://www.w3.org/2000/svg" font-family="monospace" font-size="13">

  <!-- Background -->
  <rect width="860" height="420" fill="#1e1e2e" rx="12"/>

  <!-- ── ESP32 block ── -->
  <rect x="20" y="60" width="180" height="300" rx="8" fill="#2a2a3e" stroke="#4a9eff" stroke-width="2"/>
  <text x="110" y="85" fill="#4a9eff" font-size="14" font-weight="bold" text-anchor="middle">ESP32-WROOM-32</text>

  <!-- ESP32 pins -->
  <rect x="160" y="110" width="40" height="24" rx="4" fill="#3a3a5e" stroke="#4a9eff" stroke-width="1"/>
  <text x="180" y="127" fill="#fff" font-size="11" text-anchor="middle">3V3</text>

  <rect x="160" y="150" width="40" height="24" rx="4" fill="#3a3a5e" stroke="#ff6b6b" stroke-width="1"/>
  <text x="180" y="167" fill="#ff6b6b" font-size="11" text-anchor="middle">GND</text>

  <rect x="160" y="190" width="40" height="24" rx="4" fill="#3a3a5e" stroke="#a0e878" stroke-width="1"/>
  <text x="180" y="207" fill="#a0e878" font-size="11" text-anchor="middle">IO19</text>
  <text x="90" y="207" fill="#a0e878" font-size="11" text-anchor="middle">CLK</text>

  <rect x="160" y="230" width="40" height="24" rx="4" fill="#3a3a5e" stroke="#ffd700" stroke-width="1"/>
  <text x="180" y="247" fill="#ffd700" font-size="11" text-anchor="middle">IO18</text>
  <text x="90" y="247" fill="#ffd700" font-size="11" text-anchor="middle">DATA</text>

  <rect x="160" y="270" width="40" height="24" rx="4" fill="#3a3a5e" stroke="#ff6b6b" stroke-width="1"/>
  <text x="180" y="287" fill="#ff6b6b" font-size="11" text-anchor="middle">GND</text>

  <rect x="160" y="310" width="40" height="24" rx="4" fill="#3a3a5e" stroke="#ff9944" stroke-width="1"/>
  <text x="180" y="327" fill="#ff9944" font-size="11" text-anchor="middle">VIN</text>
  <text x="90" y="327" fill="#ff9944" font-size="11" text-anchor="middle">5V in</text>

  <!-- ── Level Shifter block ── -->
  <rect x="320" y="80" width="220" height="260" rx="8" fill="#2a3a2a" stroke="#78d878" stroke-width="2"/>
  <text x="430" y="105" fill="#78d878" font-size="13" font-weight="bold" text-anchor="middle">BSS138 Level Shifter</text>
  <text x="430" y="122" fill="#78d878" font-size="11" text-anchor="middle">IIC I2C 5V ↔ 3.3V</text>

  <!-- LV side labels -->
  <text x="340" y="158" fill="#aaa" font-size="11">LV side (3.3V)</text>
  <rect x="330" y="165" width="40" height="22" rx="3" fill="#2a4a2a" stroke="#4a9eff" stroke-width="1"/>
  <text x="350" y="181" fill="#4a9eff" font-size="11" text-anchor="middle">LV</text>
  <rect x="330" y="195" width="40" height="22" rx="3" fill="#2a4a2a" stroke="#ff6b6b" stroke-width="1"/>
  <text x="350" y="211" fill="#ff6b6b" font-size="11" text-anchor="middle">GND</text>
  <rect x="330" y="225" width="40" height="22" rx="3" fill="#2a4a2a" stroke="#a0e878" stroke-width="1"/>
  <text x="350" y="241" fill="#a0e878" font-size="11" text-anchor="middle">A1</text>
  <rect x="330" y="255" width="40" height="22" rx="3" fill="#2a4a2a" stroke="#ffd700" stroke-width="1"/>
  <text x="350" y="271" fill="#ffd700" font-size="11" text-anchor="middle">A2</text>

  <!-- GND internal bridge inside BSS138 -->
  <line x1="370" y1="206" x2="490" y2="206" stroke="#ff6b6b" stroke-width="1.5" stroke-dasharray="4,3"/>
  <text x="430" y="200" fill="#ff6b6b" font-size="9" text-anchor="middle" opacity="0.8">internally connected</text>

  <!-- HV side labels -->
  <text x="455" y="158" fill="#aaa" font-size="11">HV side (5V)</text>
  <rect x="490" y="165" width="40" height="22" rx="3" fill="#3a2a2a" stroke="#ff9944" stroke-width="1"/>
  <text x="510" y="181" fill="#ff9944" font-size="11" text-anchor="middle">HV</text>
  <rect x="490" y="195" width="40" height="22" rx="3" fill="#3a2a2a" stroke="#ff6b6b" stroke-width="1"/>
  <text x="510" y="211" fill="#ff6b6b" font-size="11" text-anchor="middle">GND</text>
  <rect x="490" y="225" width="40" height="22" rx="3" fill="#3a2a2a" stroke="#a0e878" stroke-width="1"/>
  <text x="510" y="241" fill="#a0e878" font-size="11" text-anchor="middle">B1</text>
  <rect x="490" y="255" width="40" height="22" rx="3" fill="#3a2a2a" stroke="#ffd700" stroke-width="1"/>
  <text x="510" y="271" fill="#ffd700" font-size="11" text-anchor="middle">B2</text>

  <!-- ── DIN-5 block ── -->
  <rect x="660" y="80" width="180" height="260" rx="8" fill="#2a2a3e" stroke="#cc88ff" stroke-width="2"/>
  <text x="750" y="105" fill="#cc88ff" font-size="13" font-weight="bold" text-anchor="middle">AT DIN-5</text>
  <text x="750" y="122" fill="#cc88ff" font-size="11" text-anchor="middle">Keyboard connector</text>

  <rect x="660" y="165" width="40" height="22" rx="3" fill="#2a2a4a" stroke="#ff9944" stroke-width="1"/>
  <text x="680" y="181" fill="#ff9944" font-size="11" text-anchor="middle">pin 5</text>
  <text x="780" y="181" fill="#ff9944" font-size="11">+5V</text>

  <rect x="660" y="195" width="40" height="22" rx="3" fill="#2a2a4a" stroke="#ff6b6b" stroke-width="1"/>
  <text x="680" y="211" fill="#ff6b6b" font-size="11" text-anchor="middle">pin 4</text>
  <text x="780" y="211" fill="#ff6b6b" font-size="11">GND</text>

  <rect x="660" y="225" width="40" height="22" rx="3" fill="#2a2a4a" stroke="#a0e878" stroke-width="1"/>
  <text x="680" y="241" fill="#a0e878" font-size="11" text-anchor="middle">pin 1</text>
  <text x="780" y="241" fill="#a0e878" font-size="11">CLK</text>

  <rect x="660" y="255" width="40" height="22" rx="3" fill="#2a2a4a" stroke="#ffd700" stroke-width="1"/>
  <text x="680" y="271" fill="#ffd700" font-size="11" text-anchor="middle">pin 2</text>
  <text x="780" y="271" fill="#ffd700" font-size="11">DATA</text>

  <rect x="660" y="285" width="40" height="22" rx="3" fill="#2a2a4a" stroke="#888" stroke-width="1"/>
  <text x="680" y="301" fill="#888" font-size="11" text-anchor="middle">pin 3</text>
  <text x="780" y="301" fill="#888" font-size="11">NC</text>

  <!-- ── Wires ESP32 → Level shifter LV ── -->
  <!-- 3.3V -->
  <line x1="200" y1="122" x2="330" y2="176" stroke="#4a9eff" stroke-width="2"/>
  <!-- GND (left) -->
  <line x1="200" y1="162" x2="330" y2="206" stroke="#ff6b6b" stroke-width="2"/>
  <!-- CLK A1 -->
  <line x1="200" y1="202" x2="330" y2="236" stroke="#a0e878" stroke-width="2"/>
  <!-- DATA A2 -->
  <line x1="200" y1="242" x2="330" y2="266" stroke="#ffd700" stroke-width="2"/>

  <!-- ── Wires Level shifter HV → DIN-5 ── -->
  <!-- 5V -->
  <line x1="530" y1="176" x2="660" y2="176" stroke="#ff9944" stroke-width="2"/>
  <!-- GND -->
  <line x1="530" y1="206" x2="660" y2="206" stroke="#ff6b6b" stroke-width="2"/>
  <!-- CLK B1 -->
  <line x1="530" y1="236" x2="660" y2="236" stroke="#a0e878" stroke-width="2"/>
  <!-- DATA B2 -->
  <line x1="530" y1="266" x2="660" y2="266" stroke="#ffd700" stroke-width="2"/>

  <!-- VIN → HV wire (5V rail) — horizontal parts solid, vertical dashed -->
  <line x1="200" y1="322" x2="215" y2="322" stroke="#ff9944" stroke-width="2"/>
  <line x1="215" y1="322" x2="215" y2="375" stroke="#ff9944" stroke-width="2"/>
  <line x1="215" y1="375" x2="570" y2="375" stroke="#ff9944" stroke-width="2"/>
  <line x1="570" y1="375" x2="570" y2="176" stroke="#ff9944" stroke-width="2" stroke-dasharray="6,3"/>
  <line x1="570" y1="176" x2="530" y2="176" stroke="#ff9944" stroke-width="2"/>

  <!-- GND shared rail -->
  <line x1="200" y1="282" x2="290" y2="282" stroke="#ff6b6b" stroke-width="2"/>
  <line x1="290" y1="282" x2="290" y2="206" stroke="#ff6b6b" stroke-width="2" stroke-dasharray="6,3"/>
  <line x1="290" y1="206" x2="330" y2="206" stroke="#ff6b6b" stroke-width="2"/>

  <!-- Title -->
  <text x="430" y="40" fill="#eee" font-size="16" font-weight="bold" text-anchor="middle">BLE → PS/2 Bridge — Wiring Diagram</text>
  <text x="430" y="395" fill="#666" font-size="11" text-anchor="middle">GPIO19 = CLK · GPIO18 = DATA · open-drain (GPIO_MODE_OUTPUT_OD)</text>

</svg>
